<svg xmlns="http://www.w3.org/2000/svg" viewBox="0 0 1448 1086">
  <defs>
    <linearGradient id="bg" x1="0" y1="0" x2="1" y2="1"><stop offset="0" stop-color="#fbf6ed"/><stop offset="1" stop-color="#ede6d7"/></linearGradient>
    <linearGradient id="card" x1="0" y1="0" x2="1" y2="1"><stop offset="0" stop-color="#fffaf3"/><stop offset="1" stop-color="#f0e4d5"/></linearGradient>
    <linearGradient id="clay" x1="0" y1="0" x2="1" y2="1"><stop offset="0" stop-color="#d88a6b"/><stop offset="1" stop-color="#a9563e"/></linearGradient>
    <filter id="shadow" x="-20%" y="-20%" width="140%" height="150%"><feDropShadow dx="0" dy="22" stdDeviation="24" flood-color="#2a211b" flood-opacity="0.11"/></filter>
    <symbol id="pin" viewBox="-24 -36 48 66"><path d="M0-34c14 0 24 10 24 23C24 8 0 30 0 30S-24 8-24-11C-24-24-14-34 0-34Z"/><circle cx="0" cy="-11" r="7" fill="#fff7ee"/></symbol>
  </defs>
  <rect width="1448" height="1086" fill="url(#bg)"/>
  <circle cx="724" cy="520" r="380" fill="#cc785c" opacity=".07"/>
  <g transform="translate(120 170)" filter="url(#shadow)">
    <path d="M80 270 620 60c65-25 138-20 198 14l430 244c60 34 60 119 0 153L707 778c-61 35-136 37-199 5L83 568c-76-38-78-148-3-298Z" fill="#f3ebdf" opacity=".9"/>
    <g stroke="#e0d2bf" stroke-width="3" opacity=".8">
      <path d="M125 318h1070M155 455h1040M220 590h850M310 170v535M510 105v665M720 95v600M930 165v445"/>
    </g>
    <g stroke="#fff8ef" stroke-width="18" stroke-linecap="round" opacity=".72">
      <path d="M125 318h1070M155 455h1040M310 170v535M510 105v665M720 95v600M930 165v445"/>
    </g>
    <g stroke="#e0d2bf" stroke-width="3" opacity=".75">
      <path d="M125 318h1070M155 455h1040M310 170v535M510 105v665M720 95v600M930 165v445"/>
    </g>
    <g fill="#9b9388" opacity=".65">
      <use href="#pin" x="230" y="270" width="54" height="74"/><use href="#pin" x="405" y="190" width="48" height="66"/><use href="#pin" x="945" y="250" width="52" height="70"/><use href="#pin" x="1045" y="500" width="46" height="62"/><use href="#pin" x="360" y="540" width="48" height="66"/>
    </g>
    <g transform="translate(605 350)">
      <ellipse cx="115" cy="160" rx="165" ry="42" fill="#cc785c" opacity=".14"/>
      <circle cx="115" cy="120" r="118" fill="none" stroke="#fff8ef" stroke-width="8"/>
      <g filter="url(#shadow)">
        <path d="M28 80 116 44l91 36v98l-91 42-88-42Z" fill="#c9baa7" opacity=".75"/>
        <path d="M42 62 116 32l76 30v36l-76 34-74-34Z" fill="#f8efe4" stroke="#cbbba8" stroke-width="3"/>
        <path d="M42 98 116 132l76-34v35l-76 36-74-36Z" fill="#dfd0bd" stroke="#b8aa98" stroke-width="3"/>
        <path d="M42 133 116 169l76-36v35l-76 38-74-38Z" fill="#cabbab" stroke="#a99a88" stroke-width="3"/>
        <path d="M58 74v106M86 62v132M116 38v164M146 62v132M176 74v106" stroke="#6f665c" stroke-width="7" stroke-linecap="round" opacity=".6"/>
        <path d="M32 66h70M42 66V25M42 25h100M142 25v27" stroke="#9b8d7d" stroke-width="5" stroke-linecap="round" opacity=".7"/>
      </g>
      <g transform="translate(115 4) scale(1.7)" fill="url(#clay)" filter="url(#shadow)"><use href="#pin"/></g>
    </g>
  </g>
  <g filter="url(#shadow)">
    <rect x="88" y="88" width="310" height="170" rx="30" fill="url(#card)" stroke="#e2d6c5" stroke-width="2"/>
    <circle cx="165" cy="173" r="50" fill="none" stroke="#d8cbb9" stroke-width="20"/><path d="M165 123a50 50 0 0 1 44 73" fill="none" stroke="#cc785c" stroke-width="20" stroke-linecap="round"/>
    <rect x="260" y="137" width="98" height="10" rx="5" fill="#d7cbbb"/><rect x="260" y="174" width="72" height="10" rx="5" fill="#d7cbbb"/><rect x="260" y="211" width="110" height="10" rx="5" fill="#d7cbbb"/>
    <rect x="1010" y="88" width="350" height="210" rx="32" fill="url(#card)" stroke="#e2d6c5" stroke-width="2"/>
    <circle cx="1082" cy="148" r="25" fill="#f0e4d5"/><circle cx="1082" cy="216" r="25" fill="#f0e4d5"/><circle cx="1082" cy="272" r="25" fill="#f0dcd1"/>
    <rect x="1135" y="135" width="150" height="10" rx="5" fill="#d7cbbb"/><rect x="1135" y="166" width="108" height="10" rx="5" fill="#e1d6c7"/><rect x="1135" y="205" width="176" height="10" rx="5" fill="#d7cbbb"/><rect x="1135" y="236" width="112" height="10" rx="5" fill="#e1d6c7"/><rect x="1135" y="263" width="128" height="10" rx="5" fill="#d7cbbb"/>
    <rect x="80" y="760" width="360" height="170" rx="30" fill="url(#card)" stroke="#e2d6c5" stroke-width="2"/>
    <path d="M130 870c36-63 61-45 88-76 33-37 58 28 91 2 28-22 50-4 82-52" fill="none" stroke="#cc785c" stroke-width="5" stroke-linecap="round"/><path d="M130 812h260M130 852h260M130 892h260" stroke="#e3d7c7" stroke-width="2"/>
    <rect x="950" y="720" width="372" height="220" rx="32" fill="url(#card)" stroke="#e2d6c5" stroke-width="2"/>
    <circle cx="1056" cy="830" r="68" fill="none" stroke="#e3d7c7" stroke-width="3"/><circle cx="1056" cy="830" r="40" fill="none" stroke="#e3d7c7" stroke-width="3"/><circle cx="1056" cy="830" r="16" fill="#cc785c"/>
    <circle cx="1182" cy="785" r="18" fill="#cc785c"/><rect x="1215" y="778" width="88" height="10" rx="5" fill="#d7cbbb"/><circle cx="1182" cy="842" r="18" fill="#91897f"/><rect x="1215" y="835" width="108" height="10" rx="5" fill="#d7cbbb"/><circle cx="1182" cy="900" r="18" fill="#91897f"/><rect x="1215" y="893" width="118" height="10" rx="5" fill="#d7cbbb"/>
  </g>
</svg>
